<svg xmlns="http://www.w3.org/2000/svg" viewBox="0 0 544.45 524.59"><defs><style>.cls-1{fill:#fff;}</style></defs><title>bolsa-empty-icon</title><g id="Capa_2" data-name="Capa 2"><g id="Capa_12" data-name="Capa 12"><path class="cls-1" d="M240.8,318.2a81.9,81.9,0,0,0,1.13-10.39c0-.4.06-.79.1-1.16l.13-.93c.46-2.51,1.69-4.17,5.16-5.41,17.32-6.14,22.58-42.27,8.12-54-1.34-1.09-2.87-2.35-4.46-2.62-6.91-1.13-8.08-6-9-11.86-7-43.74-44-80.94-87.83-88.46-15.67-2.71-15.4-2.73-17.08-19-1.55-14.87-3.81-29.71-5.67-44.56-.84-6.58-4.3-10.64-11-9.72s-9,5.8-8.42,12.26c.27,2.76.75,5.51,1.09,8.27,1.76,14.87,3.39,29.77,5.34,44.62.67,5-.25,7.06-6,8-47.82,8-82,42.57-90.74,91.21-.74,4-1.91,6.46-6.23,8.32-16.88,7.37-21,42.21-6.57,53.86,1.84,1.49,4.1,3.22,6.3,3.41,5.49.46,6.33,3.38,6.89,8.26q11.1,96,22.69,192c2,16.19,10.89,24,27.13,24.11,20,.1,40.09-.11,60.12.09v0l60.4-.09c12.15.26,19.44-5.88,21-19.62l26.62-183.52A16.62,16.62,0,0,0,240.8,318.2ZM149.49,162.74c29.79,6.06,52,22.27,65.71,49.73a99.34,99.34,0,0,1,7.61,22.67c1.06,4.74-.28,6.85-5.7,6.64-10.12-.42-20.24-.12-30.36-.12-9.78,0-19.54-.09-29.32,0-3.44,0-6-.25-6.5-4.57-2.91-23.86-6.24-47.66-8.88-71.54C141.36,159.22,147,162.24,149.49,162.74ZM44,327.73c-.65-7.29-1.72-14.54-2.78-21.76-.57-3.73.87-5,4.48-5q44.49.06,89,0c3.91,0,4.1,2.26,4.71,5.28,5.53,27.57,5.59,27.55-22.19,27.55H93.12c-14,0-27.93-.23-41.88.12C46.32,334.06,44.43,332.51,44,327.73ZM195.76,493.06c-.76,8-3.19,12.85-8.38,12.57H142.71a26.29,26.29,0,0,0-8-.9c-20.24.14-40.47-.11-60.71.12-6.91.08-9.59-2.37-10.41-9.59-5-45-10.43-90-16-134.91-.67-5.53.3-7.33,6.18-7.23,19.19.34,38.4.13,57.59.13q29.33,0,58.64,0a14.06,14.06,0,0,0,5.86-1.09,8.16,8.16,0,0,0,3.16-2.51,10.15,10.15,0,0,0,1.91-5.18c.65-5.65-2.93-10.87-8-10.22-11.48,1.51-11.08-5.83-11.79-13-.44-4.15-.42-8.42-1.37-12.46-1.4-6.18.86-7.92,6.88-7.78,13.59.32,27.21.11,40.82.09,9.7,0,12.76,0,13.52,4.61Zm-64.1-211.58c-33.87,0-67.75-.36-101.6.23-8.65.15-9.36-3.21-9.38-10.27s.94-11.27,9.55-10.26c6.53.75,13.24.17,19.88.08,6.14-.08,10.18-3,10.3-9.32.13-6.16-3.6-10.68-9.57-10-13,1.51-10.37-5.39-8.17-13,10.6-36.62,35-58.26,71.85-66.4,4.57-1,7.46-1,8.11,5.48,2.14,21.14,5,42.19,8,63.25,1,7.56-.1,11.9-9.19,10.47-5.91-.9-11.36.61-13.39,7.21-2.16,7,3,12.25,12.36,12.32,20.95.14,41.87,0,62.82,0,17.47,0,34.92.44,52.37-.17,9.58-.34,7.27,5.78,7.63,11,.38,5.76.21,9.63-7.86,9.51C200.77,281.21,166.2,281.48,131.66,281.48Z"/><path class="cls-1" d="M544.15,498.78c-2.76-23.34-3-46.87-4-70.22-1-22.06-3-44.14-3-66.33.06-24.23-2.16-48.47-3.38-72.71-2.82-56.81-5.55-113.62-8.61-170.41-.73-13.68-7.94-20-21.62-20.07-18.49-.13-37-.57-55.49.23-7.92.33-10.12-2.51-10.85-9.51a107.14,107.14,0,0,0-20.09-52C395.53,7.91,366.55-5,329.94,1.73c-13.2,2.41-24.76,9-34.92,17.91C274.17,37.87,262.29,61,258.67,88.21c-1.13,8.59-3.77,11.56-12.8,11.06-16.36-.9-32.85.44-49.21-.44-17.87-1-27.42,7-26.66,27.15.23,6,2.13,10.43,8.58,11,6.83.59,11.23-3.43,10.69-9.86-.82-9.32,4.36-8.82,10.72-8.8,49.23.13,98.46.06,147.69.06,49.92,0,99.84.11,149.78-.12,6,0,8.63.88,8.59,7.79-.08,12.19,1.13,24.38,1.76,36.58q4,76.15,7.9,152.33c3,60.25,5.82,120.52,9,180.77.38,7.18-1.42,9.51-9,9.38-27.57-.46-55.16-.17-82.73-.19-.77,0-1.54,0-2.3,0l-193,.73a9.58,9.58,0,0,0,0,18.85H430.31c.85,0,1.73.07,2.63.06,29.33-.1,58.66,0,88-.06C537.93,524.46,546.17,515.91,544.15,498.78ZM408.81,99.23c-20.53-.65-41.1-.21-61.65-.21q-31.34,0-62.7,0c-3.73,0-7.84,1-7-5.41,3.54-28.13,21.39-63.22,54.91-72,27-7,48.41,3,65.58,23.53,10.73,12.8,16.28,28.09,19.7,44.28C419.26,97.2,417,99.5,408.81,99.23Z"/><path class="cls-1" d="M84.79,241.75c-6,0-10.11,2.69-10.59,9-.52,7,3.61,10,10.1,10.55,6.23-.22,11.06-2.3,11.11-9.52C95.46,244.91,91.31,241.79,84.79,241.75Z"/><polygon class="cls-1" points="315.67 226.66 305.52 259.94 315.67 259.94 315.67 375.78 428.67 375.78 428.67 342.51 357.05 342.51 357.05 226.66 315.67 226.66"/></g></g></svg>