<svg xmlns="http://www.w3.org/2000/svg" viewBox="0 0 259.9 250.44"><defs><style>.cls-1{fill:#fff;}</style></defs><title>bolsa-compra-icon</title><g id="Capa_2" data-name="Capa 2"><g id="Capa_12" data-name="Capa 12"><path class="cls-1" d="M144.48,101.34l-4.56,15h4.56v36.36c1.25.13,2.49.29,3.73.47a102.85,102.85,0,0,1,28.44,8.76,44.51,44.51,0,0,1,10.27,6.57h8.44v-15H163.12V101.34Z"/><path class="cls-1" d="M64.31,240.94c-9.66.07-19.32-.05-29,.06-3.3,0-4.58-1.13-5-4.58-2.38-21.48-5-42.95-7.64-64.4-.32-2.64.14-3.5,3-3.45,9.16.16,18.33.06,27.49.06q14,0,28,0a6.7,6.7,0,0,0,2.8-.52,3.88,3.88,0,0,0,1.51-1.2,4.86,4.86,0,0,0,.91-2.47c.31-2.7-1.4-5.19-3.8-4.88-5.48.72-5.29-2.78-5.63-6.21a49,49,0,0,0-.65-6c-.67-2.95.41-3.78,3.28-3.71,6.49.15,13,.05,19.49,0,6.73,0,6.76,0,6.47,6.76-.13,2.86,1,4.89,3.47,5.56a6.76,6.76,0,0,0,.83.17,4,4,0,0,0,3.91-1.46h0a6.57,6.57,0,0,0,1.2-2.87,39.18,39.18,0,0,0,.54-5c.1-1.78.49-2.84,2.57-3.58,8.27-2.93,10.78-20.18,3.88-25.77a5.19,5.19,0,0,0-2.13-1.25c-3.3-.54-3.86-2.88-4.31-5.66C112.15,89.8,94.47,72,73.57,68.45c-7.48-1.29-7.35-1.3-8.15-9.05-.74-7.1-1.82-14.18-2.71-21.27-.4-3.14-2.05-5.08-5.26-4.64s-4.32,2.77-4,5.85c.13,1.32.36,2.63.52,3.95.84,7.1,1.62,14.21,2.55,21.3.32,2.41-.12,3.37-2.88,3.83C30.79,72.24,14.47,88.74,10.3,112c-.35,1.9-.91,3.08-3,4-8.06,3.52-10,20.15-3.14,25.71a6.35,6.35,0,0,0,3,1.63c2.62.22,3,1.61,3.29,3.94q5.3,45.84,10.83,91.65c.93,7.73,5.2,11.47,13,11.51,10,0,20-.07,30,0,3.59.05,6.72-.75,6.79-4.75C71.12,241.51,67.81,240.91,64.31,240.94Zm7-163.25c14.22,2.89,24.84,10.63,31.37,23.74a47.52,47.52,0,0,1,3.63,10.82c.51,2.26-.13,3.27-2.72,3.17-4.83-.2-9.66-.06-14.49-.06-4.67,0-9.33,0-14,0-1.64,0-2.85-.12-3.1-2.18-1.39-11.39-3-22.75-4.24-34.15C67.48,76,70.18,77.45,71.36,77.69ZM9.87,129.58c0-3.44.45-5.38,4.56-4.9a75.09,75.09,0,0,0,9.49,0c2.93,0,4.86-1.42,4.92-4.45s-1.72-5.1-4.57-4.78c-6.19.72-4.95-2.57-3.9-6.18,5.06-17.48,16.7-27.81,34.3-31.7,2.18-.48,3.56-.49,3.87,2.62,1,10.09,2.4,20.14,3.8,30.19.5,3.61-.05,5.68-4.39,5-2.82-.43-5.42.29-6.39,3.44-1,3.33,1.43,5.85,5.9,5.88,10,.07,20,0,30,0,8.34,0,16.67.21,25-.08,4.57-.16,3.47,2.76,3.64,5.26.18,2.75.1,4.6-3.75,4.54-16.5-.22-33-.09-49.49-.09-16.17,0-32.34-.17-48.5.11C10.22,134.55,9.88,133,9.87,129.58ZM21,156.45c-.31-3.48-.82-6.94-1.33-10.39-.27-1.78.42-2.39,2.14-2.38q21.24,0,42.47,0c1.87,0,2,1.08,2.25,2.52,2.64,13.16,2.67,13.15-10.59,13.15H44.45c-6.66,0-13.33-.11-20,.06C22.11,159.47,21.21,158.73,21,156.45Z"/><path class="cls-1" d="M259.76,238.1c-1.32-11.14-1.42-22.37-1.93-33.52-.49-10.53-1.45-21.07-1.43-31.66,0-11.57-1-23.14-1.61-34.71-1.35-27.12-2.65-54.24-4.11-81.35-.35-6.53-3.79-9.53-10.32-9.58-8.83-.06-17.67-.27-26.49.11-3.78.16-4.83-1.2-5.18-4.54A51.17,51.17,0,0,0,199.1,18C188.81,3.78,175-2.37,157.5.83,151.2,2,145.68,5.15,140.83,9.38a51.12,51.12,0,0,0-17.35,32.73c-.54,4.1-1.8,5.52-6.11,5.28-7.81-.43-15.68.21-23.49-.21-8.53-.47-13.09,3.33-12.73,13,.11,2.85,1,5,4.1,5.23,3.26.28,5.36-1.64,5.1-4.71-.39-4.45,2.08-4.21,5.12-4.2,23.5.06,47,0,70.5,0,23.83,0,47.66,0,71.5-.06,2.85,0,4.12.42,4.1,3.72,0,5.82.54,11.64.84,17.46q1.91,36.36,3.77,72.72c1.44,28.76,2.78,57.53,4.29,86.29.18,3.43-.68,4.54-4.28,4.48-13.16-.22-26.33-.08-39.49-.09-3.19,0-6.35.23-6.45,4.4s2.86,5,6.42,5c14-.05,28,0,42,0C256.79,250.36,260.72,246.28,259.76,238.1ZM195.15,47.37c-9.8-.31-19.62-.1-29.43-.1q-15,0-29.93,0c-1.78,0-3.74.5-3.35-2.58,1.69-13.43,10.21-30.18,26.21-34.36C171.55,7,181.76,11.76,190,21.56c5.12,6.11,7.77,13.41,9.4,21.14C200.14,46.4,199.05,47.5,195.15,47.37Z"/><path class="cls-1" d="M94.9,167c-8.88,4.37-15.53,11.33-18.54,21.16-2.56,8.39,1,13.4,9.69,13.43q9.78,0,19.55,0H163l20.94,0c9.22,0,12.84-5.16,9.94-14A33.61,33.61,0,0,0,185,173.48a36.82,36.82,0,0,0-6.63-5,41.25,41.25,0,0,0-3.84-2,97.21,97.21,0,0,0-27.05-8.34c-1-.15-2-.28-3-.4a85.14,85.14,0,0,0-9.43-.52Q114.91,157.18,94.9,167Zm52.58.75a85.37,85.37,0,0,1,19.7,5.75c1,.43,2,.88,3.07,1.35,7.2,3.33,12.8,8.79,15.17,17.5h-45.8q-25.64,0-51.11.06h-.05c-3.32,0-3.5-1-2.28-3.75a27.18,27.18,0,0,1,13.45-13.51,82,82,0,0,1,35.51-8.39A76.63,76.63,0,0,1,147.48,167.73Z"/><path class="cls-1" d="M184,221.38H135.5c-16.65,0-33.3,0-49.95,0-4.81,0-9,1.58-10,6.48-2.68,13.78,3.85,22.69,16.89,22.59,28.47-.2,57-.05,85.42-.06,11.45,0,17.56-6.12,17.55-17.51C195.45,224.7,192.15,221.39,184,221.38Zm-1.64,19a14.25,14.25,0,0,1-4.89.65q-42.21.06-84.42,0c-2.35,0-4.67,0-6.59-1.66-2.34-2-2.47-4.85-1.75-7.36.65-2.32,3.17-1.12,4.8-1.13,15.32-.09,30.64-.06,46-.06,15.15,0,30.3-.05,45.45.08,1.76,0,4.77-1.66,5.09,2C186.24,236,185.75,239.09,182.32,240.35Z"/><path class="cls-1" d="M181,206.59h-73.9c-7,0-14,0-21,0-3.72,0-6.29,1.63-5.63,5.76C81,216,84,216.27,87,216.27H147.4q18.48,0,37,0c3.29,0,5.76-1.44,5.81-4.78s-2.47-4.82-5.72-4.89C183.28,206.58,182.12,206.59,181,206.59Z"/><path class="cls-1" d="M45.55,120.21c0-3.3-2-4.79-5.07-4.81-2.85,0-4.83,1.29-5.06,4.32-.25,3.34,1.72,4.76,4.82,5C43.22,124.65,45.52,123.65,45.55,120.21Z"/></g></g></svg>